<svg viewBox="0 0 973 203" xmlns="http://www.w3.org/2000/svg" fill-rule="evenodd" clip-rule="evenodd" stroke-linejoin="round" stroke-miterlimit="2"><path d="M337.635 124.605v-71.86l-36.042 51.086h-1.921l-36.164-50.965v71.74h-7.805V34.291h3.454l41.537 58.419 41.156-58.419h3.577v90.313h-7.792zm42.967 2.443h-7.818V60.383h7.818v66.665zM370.18 43.557c0-3.61 2.995-6.353 6.77-6.353a6.593 6.3 0 016.647 6.353 6.59 6.298 0 01-6.647 6.355c-3.775 0-6.77-2.74-6.77-6.355m35.056 75.267c-6.653-6.604-10.039-14.954-10.039-25.046 0-10.22 3.386-18.569 10.164-25.17 6.906-6.605 15.64-9.846 26.196-9.846 13.683 0 25.798 6.604 31.141 17.198l-6.375 3.49c-4.7-8.477-14.214-13.832-24.766-13.832-8.216 0-15.116 2.615-20.462 7.973-5.337 5.233-8.074 11.965-8.074 20.187 0 8.1 2.6 14.824 7.813 20.063 5.216 5.233 11.866 7.85 19.94 7.85 10.558 0 20.592-5.731 25.152-13.831l6.38 3.734c-2.733 5.114-7.035 9.222-12.764 12.339-5.734 3.116-11.996 4.61-18.768 4.61-10.292 0-18.893-3.236-25.538-9.719m69.457 8.224V60.384h7.427v10.715c3.786-8.35 10.428-12.463 20.2-12.463 2.735 0 5.605.374 8.6 1.125l-.911 7.1a24.45 23.366 0 00-7.425-1.125c-12.645 0-20.072 9.472-20.072 23.304v38.008h-7.819zm92.527-13.335c5.343-5.482 8.082-12.214 8.082-20.062 0-7.849-2.74-14.58-8.082-19.938-5.34-5.358-12.126-8.1-20.325-8.1-8.085 0-14.866 2.742-20.34 8.224-5.334 5.358-8.068 11.965-8.068 19.814 0 7.848 2.734 14.58 8.069 20.062 5.473 5.358 12.254 8.1 20.339 8.1 8.199 0 14.985-2.742 20.325-8.1m-46.26-44.86c6.908-6.731 15.512-10.089 25.935-10.089 10.427 0 19.023 3.358 25.929 10.09 6.908 6.726 10.297 14.951 10.297 24.797 0 9.845-3.389 18.195-10.297 24.926-6.906 6.727-15.502 10.09-25.93 10.09-10.422 0-19.026-3.363-25.934-10.09-6.906-6.731-10.297-15.08-10.297-24.926 0-9.846 3.391-18.07 10.297-24.797m172.542-3.115c5.085 4.74 7.558 11.338 7.558 19.813v41.498h-7.819V86.175c0-12.837-7.558-20.561-19.157-20.561-5.47 0-10.422 1.867-14.721 5.482-4.302 3.615-6.39 8.973-6.39 16.079v39.875h-7.818v-40c0-13.084-7.43-21.436-19.024-21.436-5.604 0-10.688 1.992-14.99 5.856-4.297 3.865-6.381 9.973-6.381 18.07v37.51h-7.82V60.38h7.69v11.215c3.777-8.098 12.12-12.957 22.018-12.957 10.041 0 18.9 5.109 22.673 14.455 4.307-9.346 14.205-14.455 25.027-14.455 7.819 0 14.205 2.366 19.154 7.1m28.678 24.051h50.948c-.125-14.83-10.159-24.171-24.364-24.171-14.594 0-25.021 9.59-26.584 24.17m58.639 6.857H722.18c1.177 14.824 11.213 24.919 28.277 24.919 8.996 0 19.285-3.114 25.54-7.973l3.65 5.732c-6.777 5.108-17.854 9.22-29.32 9.22-25.674 0-36.227-17.567-36.227-35.015 0-10.097 3.131-18.32 9.518-24.921 6.38-6.604 14.724-9.846 25.146-9.846 9.382 0 17.07 2.868 23.195 8.724 6.126 5.732 9.251 13.455 9.251 23.304 0 .867-.13 2.864-.391 5.856m13.947 30.403V60.384h7.427v10.715c3.783-8.35 10.428-12.463 20.2-12.463 2.735 0 5.605.374 8.6 1.125l-.911 7.1a24.456 23.371 0 00-7.427-1.125c-12.643 0-20.076 9.472-20.076 23.304v38.008h-7.813zm46.142-8.224c-6.647-6.604-10.036-14.954-10.036-25.046 0-10.22 3.389-18.569 10.166-25.17 6.911-6.605 15.632-9.846 26.19-9.846 13.684 0 25.81 6.604 31.148 17.198l-6.381 3.49c-4.694-8.477-14.214-13.832-24.766-13.832-8.205 0-15.11 2.615-20.456 7.973-5.343 5.233-8.083 11.965-8.083 20.187 0 8.1 2.61 14.824 7.822 20.063 5.21 5.233 11.857 7.85 19.934 7.85 10.558 0 20.592-5.731 25.15-13.831l6.391 3.734c-2.737 5.114-7.039 9.222-12.773 12.339-5.734 3.116-11.99 4.61-18.768 4.61-10.292 0-18.89-3.236-25.538-9.719m72.979-29.035h50.948c-.125-14.83-10.159-24.171-24.367-24.171-14.59 0-25.018 9.59-26.581 24.17m58.642 6.857h-58.642c1.177 14.824 11.21 24.919 28.277 24.919 9.001 0 19.29-3.114 25.546-7.973l3.645 5.732c-6.78 5.108-17.855 9.22-29.324 9.22-25.668 0-36.224-17.567-36.224-35.015 0-10.097 3.131-18.32 9.518-24.921 6.38-6.604 14.721-9.846 25.143-9.846 9.387 0 17.073 2.868 23.198 8.724 6.126 5.732 9.257 13.455 9.257 23.304 0 .867-.13 2.864-.394 5.856" fill="#fff" fill-rule="nonzero"/><path d="M30.868 17.069L61.749.02l-.001 34.093L30.867 51.16V17.07z" fill="#ffde4f" fill-rule="nonzero"/><path d="M61.74 34.111V.021l30.883 17.043v34.092L61.74 34.11z" fill="#e5b239" fill-rule="nonzero"/><path d="M30.873 119.397l30.881-17.048-.001 34.093-30.881 17.045v-34.09z" fill="#b61f38" fill-rule="nonzero"/><path d="M30.869 153.488l30.879-17.047 30.883 17.047-30.882 17.046-30.88-17.046z" fill="#f05a89" fill-rule="nonzero"/><path d="M92.55 153.489v-34.09l30.875 17.042v34.092L92.549 153.49z" fill="#b19aca" fill-rule="nonzero"/><path d="M123.42 136.442l30.88-17.045.003 34.093-30.88 17.045-.003-34.093z" fill="#6658a6" fill-rule="nonzero"/><path d="M0 102.354v-34.09l30.878 17.043V119.4L0 102.354z" fill="#e66a40" fill-rule="nonzero"/><path d="M0 68.265l30.879-17.048L61.75 68.263 30.879 85.307 0 68.265z" fill="#f99d49" fill-rule="nonzero"/><path d="M123.422 34.097l30.88-17.045.003 34.093-30.882 17.043V34.097z" fill="#4a9c5c" fill-rule="nonzero"/><path d="M92.559 17.047L123.44 0l30.872 17.047-30.872 17.048-30.881-17.048z" fill="#a3cf62" fill-rule="nonzero"/><path d="M154.3 85.243V51.157l30.88 17.042v34.092L154.3 85.243z" fill="#4295d1" fill-rule="nonzero"/><path d="M123.428 102.29l30.874-17.045 30.879 17.043-30.878 17.05-30.875-17.049z" fill="#6dcff6" fill-rule="nonzero"/><path d="M565.988 201.714a12.952 12.378 0 004.142-2.363l-.951-1.91a11.224 10.726 0 01-3.667 2.063 13.713 13.105 0 01-4.712.732c-2.582 0-4.514-.932-5.797-2.794-1.283-1.862-1.687-4.26-1.217-7.191l.098-.676h18.632l.364-2.373c.503-3.229-.043-5.826-1.644-7.797-1.598-1.971-3.957-2.958-7.074-2.958s-5.936 1.153-8.452 3.457c-2.517 2.306-4.06 5.326-4.628 9.066l-.22 1.28c-.552 3.538.11 6.48 1.986 8.823 1.875 2.342 4.403 3.514 7.588 3.514 2.092 0 3.943-.291 5.552-.873m2.97-20.75c1.106 1.428 1.479 3.282 1.123 5.562l-.098.699H554.59l-.049-.14c.617-2.343 1.797-4.306 3.544-5.888 1.745-1.584 3.65-2.374 5.71-2.374 2.34 0 4.06.712 5.163 2.14m18.315-15.174h-2.897l-5.7 36.31h2.898l5.699-36.31zM607 201.714a12.952 12.378 0 004.142-2.363l-.951-1.91a11.224 10.726 0 01-3.666 2.063 13.713 13.105 0 01-4.713.732c-2.582 0-4.514-.932-5.797-2.794-1.282-1.862-1.687-4.26-1.217-7.191l.098-.676h18.632l.364-2.373c.503-3.229-.043-5.826-1.644-7.797-1.598-1.971-3.957-2.958-7.074-2.958s-5.935 1.153-8.452 3.457c-2.517 2.306-4.06 5.326-4.628 9.066l-.22 1.28c-.552 3.538.111 6.48 1.986 8.823 1.876 2.342 4.406 3.514 7.588 3.514 2.093 0 3.946-.291 5.552-.873m2.97-20.75c1.107 1.428 1.479 3.282 1.123 5.562l-.098.699h-15.393l-.049-.14c.617-2.343 1.797-4.306 3.544-5.888 1.745-1.584 3.65-2.374 5.71-2.374 2.34 0 4.06.712 5.164 2.14m15.757-4.048h-2.607l-3.946 25.183h2.949l2.753-17.504c.777-1.737 1.862-3.127 3.25-4.166 1.389-1.038 3.09-1.558 5.104-1.558 2.076 0 3.585.623 4.517 1.873.935 1.249 1.158 3.456.671 6.622l-2.315 14.733h2.948l2.362-15.107a4.24 4.24 0 00.035-.324c.008-.11.03-.265.063-.465.65-2.112 1.717-3.862 3.201-5.249 1.487-1.39 3.318-2.083 5.493-2.083 2.079 0 3.584.608 4.519 1.826.932 1.218 1.15 3.441.644 6.67l-2.313 14.732h2.922l2.315-14.686c.568-3.693.204-6.443-1.095-8.251-1.302-1.808-3.296-2.714-5.992-2.714-2.145 0-4.036.493-5.675 1.48-1.641.985-2.981 2.369-4.02 4.153-.325-1.893-1.094-3.303-2.315-4.236-1.217-.93-2.79-1.397-4.723-1.397-1.949 0-3.69.384-5.226 1.153a10.873 10.39 0 00-3.884 3.317l.365-4.002zm55.165 24.799a12.952 12.378 0 004.142-2.363l-.951-1.91a11.224 10.726 0 01-3.666 2.063 13.713 13.105 0 01-4.713.732c-2.581 0-4.514-.932-5.796-2.794-1.283-1.862-1.688-4.26-1.218-7.191l.098-.676h18.632l.364-2.373c.506-3.229-.043-5.826-1.641-7.797-1.6-1.971-3.96-2.958-7.077-2.958s-5.935 1.153-8.452 3.457c-2.516 2.306-4.06 5.326-4.628 9.066l-.217 1.28c-.555 3.538.108 6.48 1.983 8.823 1.876 2.342 4.406 3.514 7.588 3.514 2.093 0 3.946-.291 5.552-.873m2.974-20.75c1.103 1.428 1.475 3.282 1.12 5.562l-.099.699h-15.392l-.05-.14c.618-2.343 1.8-4.306 3.544-5.888 1.745-1.584 3.65-2.374 5.713-2.374 2.337 0 4.057.712 5.164 2.14m15.876-4.048h-2.582l-3.946 25.183h2.924l2.729-17.41c.875-1.753 2.052-3.161 3.53-4.226 1.479-1.062 3.207-1.592 5.188-1.592 2.128 0 3.65.569 4.566 1.709.918 1.14 1.15 3.21.696 6.204l-2.41 15.315h2.92l2.411-15.338c.552-3.506.188-6.103-1.095-7.786-1.283-1.683-3.305-2.527-6.066-2.527-1.981 0-3.75.408-5.308 1.223a11.295 10.793 0 00-3.946 3.48l.39-4.235zm29.666-6.449l-1.025 6.449h-4.554l-.34 2.28h4.53l-2.557 16.408c-.391 2.408-.139 4.171.753 5.296.894 1.127 2.234 1.688 4.02 1.688.567 0 1.143-.055 1.73-.164a6.482 6.482 0 001.533-.465l-.122-2.072a13.015 12.437 0 01-1.204.2 8.955 8.557 0 01-1.036.057c-1.07 0-1.867-.325-2.386-.977-.521-.652-.644-1.838-.367-3.563l2.558-16.408h5.821l.342-2.28h-5.796l1.022-6.449h-2.922zm31.538 31.632a13.724 13.115 0 01-.146-2.467c.032-.823.122-1.69.269-2.607l1.948-12.383c.405-2.608-.182-4.623-1.766-6.051s-3.772-2.143-6.563-2.143c-2.957 0-5.485.722-7.588 2.166-2.103 1.444-3.261 3.142-3.47 5.098l.048.138 2.656.023c.209-1.379 1.081-2.566 2.617-3.56a9.104 8.7 0 015.223-1.489c2.21 0 3.821.491 4.835 1.478 1.016.984 1.386 2.415 1.109 4.293l-.487 3.12h-6.479c-3.329 0-6.125.674-8.39 2.025-2.266 1.35-3.578 3.197-3.934 5.54-.356 2.217.097 3.991 1.364 5.318 1.266 1.327 3.142 1.99 5.625 1.99 2.063 0 3.987-.447 5.773-1.338a14.186 13.557 0 004.432-3.363 11.803 11.28 0 00-.168 1.862c0 .605.016 1.387.049 2.35h3.043zm-16.305-3.246c-.838-.847-1.142-2.007-.914-3.48.242-1.506 1.245-2.802 3.006-3.888 1.764-1.085 3.78-1.628 6.055-1.628h6.503l-.804 5.028c-.894 1.503-2.261 2.753-4.104 3.747a11.767 11.245 0 01-5.859 1.488c-1.753 0-3.05-.423-3.883-1.267m41.78-22.148a5.636 5.386 0 00-.79-.174 5.998 5.732 0 00-1.011-.083 8.928 8.531 0 00-4.8 1.257c-1.413.839-2.614 2.018-3.603 3.54l.024-.14.291-4.19h-2.557l-3.946 25.184h2.924l2.701-17.223c.797-1.753 1.878-3.143 3.24-4.166a7.392 7.064 0 014.701-1.538l2.047.14.78-2.607zm31.903 25.01a12.982 12.406 0 004.142-2.363l-.951-1.91a11.224 10.726 0 01-3.666 2.063 13.713 13.105 0 01-4.713.732c-2.581 0-4.514-.932-5.796-2.794-1.283-1.862-1.69-4.26-1.218-7.191l.098-.676h18.632l.364-2.373c.503-3.229-.043-5.826-1.644-7.797-1.598-1.971-3.957-2.958-7.074-2.958s-5.935 1.153-8.452 3.457c-2.516 2.306-4.06 5.326-4.628 9.066l-.22 1.28c-.552 3.538.111 6.48 1.987 8.823 1.875 2.342 4.402 3.514 7.587 3.514 2.093 0 3.944-.291 5.552-.873m2.97-20.75c1.107 1.428 1.48 3.282 1.123 5.562l-.098.699h-15.392l-.05-.14c.618-2.343 1.797-4.306 3.544-5.888 1.745-1.584 3.648-2.374 5.71-2.374 2.34 0 4.06.712 5.164 2.14m16.561-4.048h-2.9l-3.943 25.183h2.897l3.946-25.183zm1.753-11.126h-2.897l-.609 3.908h2.897l.61-3.908zm10.887 11.126h-2.582l-3.946 25.183h2.922l2.728-17.41c.878-1.753 2.055-3.161 3.533-4.226 1.476-1.062 3.204-1.592 5.188-1.592 2.125 0 3.647.569 4.566 1.709.916 1.14 1.15 3.21.693 6.204l-2.41 15.315h2.924l2.41-15.338c.552-3.506.185-6.103-1.095-7.786-1.286-1.683-3.305-2.527-6.066-2.527-1.981 0-3.75.408-5.31 1.223a11.34 10.838 0 00-3.946 3.48l.391-4.235zm28.152 25.183l3.607-22.903h6.283l.34-2.28h-6.284l.585-3.678c.277-1.724.93-3.07 1.962-4.038 1.03-.972 2.31-1.455 3.834-1.455a9.153 8.747 0 012.582.301l.756-2.303a14.92 14.258 0 00-1.655-.327 11.344 11.344 0 00-1.585-.115c-2.418 0-4.391.665-5.919 2-1.524 1.335-2.492 3.314-2.897 5.937l-.584 3.678h-4.362l-.34 2.28h4.335l-3.58 22.903h2.922zm33.197 0a13.724 13.115 0 01-.147-2.467c.032-.823.122-1.69.269-2.607l1.948-12.383c.405-2.608-.182-4.623-1.766-6.051-1.582-1.429-3.772-2.143-6.563-2.143-2.957 0-5.484.722-7.588 2.166-2.103 1.444-3.258 3.142-3.47 5.098l.049.138 2.655.023c.209-1.379 1.084-2.566 2.617-3.56a9.115 8.71 0 015.226-1.489c2.207 0 3.818.491 4.835 1.478 1.013.984 1.383 2.415 1.106 4.293l-.487 3.12h-6.479c-3.329 0-6.125.674-8.39 2.025-2.266 1.35-3.576 3.197-3.934 5.54-.356 2.217.098 3.991 1.364 5.318 1.266 1.327 3.142 1.99 5.628 1.99 2.06 0 3.984-.447 5.773-1.338a14.216 13.585 0 004.432-3.363 11.523 11.012 0 00-.171 1.862c0 .605.016 1.387.049 2.35h3.044zm-16.306-3.246c-.837-.847-1.142-2.007-.914-3.48.242-1.506 1.245-2.802 3.009-3.888 1.761-1.085 3.777-1.628 6.052-1.628h6.504l-.805 5.028c-.894 1.503-2.261 2.753-4.104 3.747a11.76 11.238 0 01-5.859 1.488c-1.753 0-3.046-.423-3.883-1.267m29.554-1.434c-1.057-1.875-1.331-4.35-.829-7.425l.147-.976c.454-2.87 1.544-5.288 3.264-7.251 1.72-1.96 3.938-2.943 6.65-2.943 2.093 0 3.75.582 4.968 1.746 1.217 1.163 1.663 2.791 1.34 4.887h2.606l.073-.117c.47-2.638-.155-4.778-1.875-6.425-1.723-1.644-3.97-2.467-6.748-2.467-3.603 0-6.555 1.145-8.854 3.433-2.296 2.291-3.745 5.335-4.345 9.137l-.147.976c-.585 3.65-.046 6.66 1.62 9.033 1.663 2.374 4.217 3.56 7.658 3.56 2.696 0 5.169-.755 7.416-2.27 2.25-1.51 3.536-3.487 3.862-5.923l-.049-.138h-2.582c-.31 1.862-1.299 3.324-2.97 4.387-1.674 1.062-3.443 1.594-5.31 1.594-2.876 0-4.84-.94-5.895-2.818m32.294-31.63h-2.921l-5.7 36.31h2.922l2.753-17.597c.924-1.691 2.15-3.052 3.677-4.086a8.77 8.38 0 015.188-1.545c2.03 0 3.503.566 4.422 1.699.916 1.132 1.155 3.119.717 5.957l-2.435 15.572h2.922l2.437-15.525c.536-3.428.166-5.973-1.108-7.635-1.275-1.66-3.253-2.491-5.933-2.491a11.246 10.747 0 00-5.297 1.19 11.422 10.916 0 00-4.03 3.396l2.386-15.244z" fill="#fff" fill-rule="nonzero"/></svg>